<svg width="28" height="28" viewBox="0 0 28 28" fill="none" xmlns="http://www.w3.org/2000/svg">
<path fill-rule="evenodd" clip-rule="evenodd" d="M26.7286 1.2719C26.3381 0.881373 25.7049 0.881373 25.3144 1.2719L14.0005 12.5858L2.6866 1.2719C2.29607 0.881373 1.66291 0.881373 1.27238 1.2719C0.881861 1.66242 0.881861 2.29559 1.27238 2.68611L12.5863 14L1.27275 25.3135C0.882225 25.7041 0.882225 26.3372 1.27275 26.7277C1.66327 27.1183 2.29644 27.1183 2.68696 26.7277L14.0005 15.4142L25.314 26.7277C25.7045 27.1183 26.3377 27.1183 26.7282 26.7277C27.1188 26.3372 27.1188 25.7041 26.7282 25.3135L15.4147 14L26.7286 2.68611C27.1191 2.29559 27.1191 1.66242 26.7286 1.2719Z" fill="url(#paint0_linear_1104_469)"/>
<defs>
<linearGradient id="paint0_linear_1104_469" x1="10.7595" y1="83.5" x2="11.4446" y2="1.00569" gradientUnits="userSpaceOnUse">
<stop stop-color="#001B6C"/>
<stop offset="0.48726" stop-color="#003FFF"/>
<stop offset="1" stop-color="#BE7BFA"/>
</linearGradient>
</defs>
</svg>
