<svg width="170" height="172" viewBox="0 0 170 172" fill="none" xmlns="http://www.w3.org/2000/svg">
<path fill-rule="evenodd" clip-rule="evenodd" d="M3.57934 5.82173C6.4548 2.29299 11.0371 0.485352 17.4008 0.485352C23.9081 0.485352 28.5354 4.34176 32.1688 7.95306C35.8023 4.34176 40.4296 0.485352 46.9368 0.485352C53.3005 0.485352 57.8829 2.29299 60.7583 5.82173C63.5307 9.22391 64.2185 13.6436 64.2185 17.7609C64.2185 23.7201 61.657 28.7839 56.6486 34.1671L32.1688 62.0348L7.68904 34.167C2.68062 28.7839 0.119141 23.7201 0.119141 17.7609C0.119141 13.6436 0.807007 9.22391 3.57934 5.82173ZM29.1688 13.4592C25.1848 9.41279 21.9666 6.48535 17.4008 6.48535C12.1512 6.48535 9.59267 7.94042 8.23062 9.61192C6.76545 11.41 6.11914 14.128 6.11914 17.7609C6.11914 21.6923 7.69443 25.3727 12.1088 30.1091L12.139 30.1414L29.1688 49.5282V13.4592ZM35.1688 49.5282L52.1987 30.1414L52.2288 30.1091C56.6432 25.3727 58.2185 21.6923 58.2185 17.7609C58.2185 14.128 57.5722 11.41 56.107 9.61192C54.745 7.94042 52.1865 6.48535 46.9368 6.48535C42.371 6.48535 39.1528 9.41279 35.1688 13.4592V49.5282Z" fill="url(#paint0_linear_973_1267)"/>
<path fill-rule="evenodd" clip-rule="evenodd" d="M74.2223 83.0875C78.4409 77.8696 85.2931 75 95.3524 75C105.997 75 113.362 81.8213 119.5 88.1086C125.638 81.8213 133.003 75 143.648 75C153.707 75 160.559 77.8696 164.778 83.0875C168.89 88.1735 170 94.9018 170 101.527C170 110.687 166.128 118.584 158.122 127.252L119.5 171.566L80.878 127.252C72.8715 118.584 69 110.687 69 101.527C69 94.9018 70.1103 88.1735 74.2223 83.0875ZM116.5 93.6345C109.816 86.7569 103.919 81 95.3524 81C86.4224 81 81.5984 83.5075 78.8881 86.8597C76.0712 90.3439 75 95.3789 75 101.527C75 108.675 77.8999 115.194 85.3135 123.211L85.3434 123.243L116.5 158.992V93.6345ZM122.5 158.992L153.657 123.243L153.687 123.211C161.1 115.194 164 108.675 164 101.527C164 95.3789 162.929 90.3439 160.112 86.8597C157.402 83.5075 152.578 81 143.648 81C135.081 81 129.184 86.7569 122.5 93.6345V158.992Z" fill="url(#paint1_linear_973_1267)"/>
<defs>
<linearGradient id="paint0_linear_973_1267" x1="-52.4782" y1="78.0865" x2="61.0223" y2="-23.8912" gradientUnits="userSpaceOnUse">
<stop stop-color="#001B6C"/>
<stop offset="0.42962" stop-color="#003FFF"/>
<stop offset="1" stop-color="#BE7BFA"/>
</linearGradient>
<linearGradient id="paint1_linear_973_1267" x1="-18.9088" y1="200.945" x2="167.981" y2="34.3433" gradientUnits="userSpaceOnUse">
<stop stop-color="#001B6C"/>
<stop offset="0.42962" stop-color="#003FFF"/>
<stop offset="1" stop-color="#BE7BFA"/>
</linearGradient>
</defs>
</svg>
